<svg height="483.992" viewBox="0 0 588.167 483.992" width="588.167" xmlns="http://www.w3.org/2000/svg"><path d="m272.5 105.492h132c6.627 0 12 5.373 12 12v228c0 6.628-5.373 12-12 12h-132c-6.627 0-12-5.372-12-12v-228c0-6.627 5.373-12 12-12z" fill="none" stroke="#000" stroke-width="7"/><path d="m260.5 350.492 30.575-43h92.151l15.288 21.795" fill="none" stroke="#000" stroke-width="7"/><path d="m316.056 349.461c0-12.912 10.049-23.379 22.444-23.379" fill="none" stroke="#000" stroke-width="4"/><path d="m360.944 349.461c0-12.912-10.049-23.379-22.444-23.379" fill="none" stroke="#000" stroke-width="4"/><path d="m316.056 349.461v8.031" fill="none" stroke="#000" stroke-width="4"/><path d="m360.944 349.461v8.031" fill="none" stroke="#000" stroke-width="4"/><path d="m300.5 152h76" fill="none" stroke="#000" stroke-width="7"/><path d="m338.5 152v-46.508" fill="none" stroke="#000" stroke-width="4"/><path d="m260.5 236 142.937 1" fill="none" stroke="#000" stroke-dasharray="14 14" stroke-width="7"/><text transform="translate(107.917 238)"><tspan fill="#656565" font-family="Avenir-Medium" font-size="40" x="-39.98" y="12">Grid</tspan></text><text transform="translate(344.177 28)"><tspan fill="#656565" font-family="Avenir-Medium" font-size="40" x="-60.42" y="12">Anode</tspan></text><text transform="translate(107.917 399.992)"><tspan fill="#656565" font-family="Avenir-Medium" font-size="40" x="-78.2" y="12">Cathode</tspan></text><text transform="translate(345.997 455.992)"><tspan fill="#656565" font-family="Avenir-Medium" font-size="40" x="-62.24" y="12">Heater</tspan></text><g stroke-width="4"><path d="m162.5 238.5h69.4" fill="none" stroke="#a3a3a3"/><path d="m231.9 238.5-3.2 4.8 12.8-4.8-12.8-4.8z" fill="#a3a3a3" stroke="#a3a3a3"/><path d="m338.5 45.492v39.4" fill="none" stroke="#a3a3a3"/><path d="m338.5 84.892-4.8-3.2 4.8 12.8 4.8-12.8z" fill="#a3a3a3" stroke="#a3a3a3"/><path d="m186.617 405.5 56.508-41.176" fill="none" stroke="#a3a3a3"/><path d="m243.125 364.324.241 5.763 7.518-11.417-13.172 3.659z" fill="#a3a3a3" stroke="#a3a3a3"/><path d="m338.5 438.492-16.735-54.904" fill="none" stroke="#a3a3a3"/><path d="m321.765 383.588 5.525 1.662-8.324-10.845-.859 13.644z" fill="#a3a3a3" stroke="#a3a3a3"/><path d="m338.5 438.492 17.483-54.946" fill="none" stroke="#a3a3a3"/><path d="m355.983 383.546 3.604 4.505-.693-13.653-8.455 10.742z" fill="#a3a3a3" stroke="#a3a3a3"/></g></svg>